<?xml version="1.0" encoding="utf-8"?>
<!-- Generator: Adobe Illustrator 18.0.0, SVG Export Plug-In . SVG Version: 6.00 Build 0)  -->
<!DOCTYPE svg PUBLIC "-//W3C//DTD SVG 1.1//EN" "http://www.w3.org/Graphics/SVG/1.1/DTD/svg11.dtd">
<svg version="1.1" id="Layer_1" xmlns="http://www.w3.org/2000/svg" xmlns:xlink="http://www.w3.org/1999/xlink" x="0px" y="0px"
	 viewBox="0 0 50 50" enable-background="new 0 0 50 50" xml:space="preserve">
<path fill="#F0F0F0" d="M20,3.2c0.1,1.2,0.2,1.9,0.2,2.1l-0.1,2.4c0,1-0.1,1.7-0.1,2c-0.2,0.1-0.3,0.1-0.4,0.1l-0.2-0.1
	c-0.6-2.6-1.6-4.4-3-5.6c-1.4-1.2-3.1-1.7-5.1-1.7C9.1,2.4,7.4,3,6.1,4.2s-2,2.5-2,4.1c0,1.2,0.5,2.3,1.4,3.3c0.9,1,3.3,2.5,7.1,4.4
	c2.9,1.5,5,2.7,6.3,3.7c1.3,1,2.2,2.1,2.8,3.3c0.6,1.3,1,2.7,1,4.2c0,2-0.5,3.8-1.5,5.5c-1,1.7-2.4,3-4.1,3.9
	c-1.7,0.9-4,1.3-6.8,1.3c-2.5,0-4.8-0.4-7.1-1.2c-1.3-0.5-2.1-0.9-2.4-1.1s-0.4-0.6-0.4-0.9c0-0.2,0-0.5,0.1-0.8
	c0.3-2.2,0.4-3.9,0.4-5.3c0-0.9,0.1-1.4,0.2-1.5c0.1-0.1,0.2-0.2,0.4-0.2c0.2,0,0.3,0.1,0.4,0.2C1.9,27.1,2,27.3,2,27.6
	c0.2,2.2,1.2,4.2,3.1,6c1.9,1.8,4,2.7,6.3,2.7c1.4,0,2.8-0.3,4-0.9c1.2-0.6,2.2-1.5,2.8-2.6c0.7-1.1,1-2.2,1-3.3
	c0-1.5-0.5-2.8-1.6-4c-1-1.2-3.1-2.6-6.3-4.3c-3.1-1.6-5.2-2.8-6.1-3.6c-1.5-1.2-2.7-2.5-3.4-3.9C1.3,12.6,1,11.4,1,10
	c0-2.5,1-4.7,3-6.4c2-1.8,4.7-2.6,8.1-2.6c1.9,0,3.5,0.2,4.8,0.6C17.9,1.9,18.9,2.4,20,3.2z"/>
<path fill="#F0F0F0" d="M23.6,8.4l0.4,0l0,1.1l0,1.4c0.1,0,0.2,0,0.3,0c0.2,0,0.6,0,1.1,0c0.4,0,0.7,0,1,0c0.2,0,0.4,0,0.7,0
	c0,0.2,0,0.3,0,0.4c0,0.1,0,0.3-0.1,0.5h-0.2l-1.8,0.1l-0.9,0l-0.2,0c-0.1,0.2-0.1,0.4-0.1,0.7l0,1.7l0,3c0,0.8,0.1,1.3,0.3,1.6
	c0.2,0.3,0.5,0.4,0.9,0.4c0.2,0,0.6-0.1,1.1-0.2c0.2,0,0.4-0.2,0.7-0.4H27c0.1,0,0.1,0,0.2,0.1c0,0,0.1,0.1,0.1,0.2l0,0.1
	c-0.3,0.4-0.7,0.6-1.1,0.8s-1,0.2-1.7,0.2c-0.5,0-0.9-0.1-1.2-0.3c-0.3-0.2-0.5-0.5-0.6-0.8c-0.1-0.3-0.1-1-0.1-2l0-2.5l0-1.2v-0.5
	c0-0.2,0-0.4,0-0.6l-0.2,0l-0.9,0l-0.1,0c-0.1,0-0.1,0-0.2-0.1S21,11.7,21,11.6c0-0.1,0-0.2,0.1-0.2s0.2-0.1,0.5-0.3
	c0.2-0.1,0.4-0.2,0.7-0.5c0.3-0.2,0.5-0.5,0.7-0.8c0.1-0.2,0.2-0.4,0.4-0.9C23.5,8.7,23.6,8.5,23.6,8.4z"/>
<path fill="#F0F0F0" d="M26.9,5.6h0.8l0.4,0l0.3,0c0.8,0,1.3,0,1.4,0l0,0.2c0,1.1,0,2.1,0,3.1c0,0.6,0,0.9,0,1c0,1.3,0,2.2,0.1,2.5
	s0.3,0.6,0.6,0.8c0.3,0.2,0.7,0.3,1.2,0.3c0.6,0,1.1-0.1,1.6-0.3c0.5-0.2,0.9-0.5,1.3-0.8c0-0.3,0.1-0.6,0.1-1c0-1.1,0-1.9,0-2.3
	c0-0.2,0-0.4,0-0.6c0-1.2-0.1-1.9-0.2-2.1S33.9,6.1,33.1,6c-0.3,0-0.5-0.1-0.6-0.1c-0.1-0.1-0.1-0.2-0.1-0.2l0-0.1
	c0.2,0,0.4,0,0.6,0l1.8,0c0.6,0,1,0,1,0c0.1,0,0.2,0,0.2,0l0,0.8c-0.1,1.1-0.1,2.6-0.1,4.3l0,0.9l0,1.5c0.1,0.1,0.1,0.2,0.2,0.2
	c0.1,0,0.3,0.1,0.6,0.1h0.1c0.1,0,0.4,0,0.8,0.1c0,0.1,0,0.2,0,0.2v0.1c-1,0.2-1.8,0.4-2.5,0.7c-0.2,0.1-0.5,0.1-0.6,0.2
	c0-0.3-0.1-0.4-0.1-0.5v-0.9c0,0,0-0.1,0-0.3c-0.1,0.1-0.2,0.2-0.3,0.2c-0.6,0.5-1.2,0.8-1.9,1.2c-0.4,0.2-0.9,0.3-1.3,0.3
	c-0.8,0-1.4-0.3-1.9-0.9c-0.5-0.6-0.8-1.6-0.8-3c0-0.1,0-0.2,0-0.4c0-0.4,0-0.6,0-0.8c0-0.1,0-0.2,0-0.5c0-0.1,0-0.2,0-0.3
	c0-0.1,0-0.2,0-0.5c0-0.2,0-0.4,0-0.5c0-0.1,0-0.2,0-0.3l0-0.6l0-0.3c0-0.1-0.1-0.2-0.2-0.3C27.8,6.1,27.5,6,27.3,6
	C27.2,6,27,6,26.9,5.9V5.6z"/>
<path fill="#F0F0F0" d="M38,21.7l0-0.3l0-1.3l0-2.5c0-0.7-0.1-1.1-0.2-1.3c-0.2-0.2-0.6-0.4-1.3-0.6c-0.1,0-0.1,0-0.2-0.1v-0.1
	c0-0.1,0-0.2,0-0.2c1-0.1,1.9-0.3,2.6-0.5l0.6,0c0,0.5,0,1.1,0,1.7l0,4.4l0.1,4.9l0,2.6c0,0.5,0,0.8,0.1,0.9c0.2,0.2,0.5,0.2,1,0.2
	c0.1,0,0.2,0,0.4,0v0.2c0,0.1,0,0.1,0,0.2c-0.2,0.1-0.5,0.1-0.7,0.1l-1.6,0.3c-0.2,0-0.4,0.1-0.6,0.1v-1.1c-0.1,0-0.3,0.1-0.6,0.2
	c-1.2,0.5-2.3,0.7-3.2,0.7c-0.6,0-1.2-0.2-1.8-0.6c-0.6-0.4-1.1-0.9-1.4-1.6c-0.3-0.7-0.5-1.4-0.5-2.1c0-0.6,0.1-1.3,0.3-1.9
	c0.2-0.6,0.5-1.1,0.9-1.5c0.2-0.3,0.5-0.5,1-0.8c0.4-0.3,0.8-0.4,1-0.5c0.7-0.2,1.1-0.3,1.3-0.3c1,0,1.9,0.2,2.5,0.5
	C37.7,21.6,37.9,21.7,38,21.7z M38,28.7c0-0.5,0-1.5,0-3.1c0-1.3-0.1-2.2-0.2-2.5s-0.4-0.7-0.9-1c-0.5-0.3-1.1-0.5-1.7-0.5
	c-0.9,0-1.6,0.3-2.2,1c-0.6,0.7-0.9,1.7-0.9,3c0,1.2,0.3,2.1,1,2.8s1.5,1,2.4,1c0.6,0,1.1-0.1,1.5-0.2C37.5,29,37.8,28.8,38,28.7z"
	/>
<path fill="#F0F0F0" d="M40.1,19.9c0.2,0,0.3,0,0.4,0h0.5l0.7,0l1,0l0.8,0c0.4,0,0.8,0,1.1,0.1c0,0.1,0,0.1,0,0.2l0,0.1
	c-0.2,0.1-0.4,0.1-0.7,0.2c-0.5,0-0.8,0.1-1,0.2l0,0.1c0,0.1,0,0.2,0.1,0.3c0,0.1,0.1,0.2,0.1,0.4c0.2,0.6,0.5,1.6,1.1,3.2
	c0.4,1.2,0.8,2.2,1.1,3c0.2-0.5,0.4-1,0.7-1.7l1-2.7c0.2-0.6,0.4-1.2,0.5-1.8c0-0.2,0.1-0.4,0.1-0.6c0-0.1,0-0.2-0.1-0.3
	c-0.1-0.1-0.3-0.2-0.6-0.2c-0.5-0.1-0.8-0.2-0.9-0.3c0,0-0.1-0.1-0.1-0.2c0,0,0.1-0.1,0.2-0.1h0.7l0.8,0l1.1,0l0.7,0l0.2,0
	c0.1,0,0.1,0,0.3,0c0.1,0,0.1,0.1,0.1,0.2c0,0.1,0,0.1-0.1,0.2l-0.2,0c-0.4,0.1-0.8,0.2-1,0.3c-0.1,0.1-0.2,0.3-0.3,0.6
	c0,0.1-0.1,0.2-0.1,0.4c0,0.1-0.1,0.2-0.2,0.5c-0.1,0.2-0.2,0.5-0.3,0.7l-0.1,0.3l0,0.1l-1.9,5.1L44.2,32c-0.1,0.2-0.2,0.4-0.3,0.7
	c-0.3,0.5-0.5,0.8-0.5,0.9c-0.2,0.3-0.4,0.5-0.6,0.6l-0.6,0.2c-0.1,0-0.2,0-0.4,0c-0.3,0-0.6-0.1-0.7-0.2c-0.2-0.1-0.2-0.4-0.2-0.6
	c0-0.2,0.1-0.5,0.4-0.7c0.1,0,0.2-0.1,0.2-0.1l0.1,0c0.7,0.1,1.1,0.2,1.3,0.2c0.2-0.1,0.3-0.2,0.4-0.3c0.4-0.5,0.7-1.2,1-1.8
	c0.3-0.7,0.4-1.1,0.4-1.4c0-0.3-0.1-0.6-0.3-1.1L43,25.1c-0.2-0.4-0.7-1.8-1.6-4.2c-0.1-0.2-0.1-0.3-0.2-0.3l-0.8-0.3l-0.2,0
	C40.1,20.2,40,20.1,40,20L40.1,19.9z"/>
</svg>
